<svg width="1920" height="1080" viewBox="0 0 1920 1080" fill="none" xmlns="http://www.w3.org/2000/svg">
  <path d="M1134.5 938.195C1134.5 1056.11 744.159 1033.69 621 1033.69C497.841 1033.69 0.5 786.413 0.5 668.5C0.5 550.587 527.341 0.5 650.5 0.5C773.659 0.5 1134.5 820.282 1134.5 938.195Z" fill="url(#paint0_linear_2_17)" fill-opacity="0.4"/>
  <path d="M1454 921.415C1454 1039.33 1063.66 1016.91 940.5 1016.91C817.341 1016.91 530.5 846.828 530.5 728.915C530.5 611.002 817.341 589.915 940.5 589.915C1063.66 589.915 1454 803.502 1454 921.415Z" fill="url(#paint1_linear_2_17)" fill-opacity="0.4"/>
  <defs>
    <linearGradient id="paint0_linear_2_17" x1="889.25" y1="588.5" x2="889.25" y2="1017.2" gradientUnits="userSpaceOnUse">
      <stop stop-color="#96CCE4"/>
      <stop offset="1" stop-color="#D0D0D0" stop-opacity="0"/>
    </linearGradient>
    <linearGradient id="paint1_linear_2_17" x1="889.25" y1="588.5" x2="889.25" y2="1017.2" gradientUnits="userSpaceOnUse">
      <stop stop-color="#E1AF50"/>
      <stop offset="1" stop-color="#D0D0D0" stop-opacity="0"/>
    </linearGradient>
  </defs>
</svg>